<svg xmlns="http://www.w3.org/2000/svg" viewBox="0 0 128 128" role="img" aria-label="DSA Mentor AI">
  <defs>
    <linearGradient id="frame" x1="14" y1="14" x2="114" y2="114" gradientUnits="userSpaceOnUse">
      <stop stop-color="#22d3ee"/>
      <stop offset=".5" stop-color="#14b8a6"/>
      <stop offset="1" stop-color="#3b82f6"/>
    </linearGradient>
    <linearGradient id="bar" x1="39" y1="83" x2="89" y2="83" gradientUnits="userSpaceOnUse">
      <stop stop-color="#6ee7b7"/>
      <stop offset="1" stop-color="#67e8f9"/>
    </linearGradient>
    <filter id="softShadow" x="-20%" y="-20%" width="140%" height="140%">
      <feDropShadow dx="0" dy="8" stdDeviation="8" flood-color="#0891b2" flood-opacity=".28"/>
    </filter>
  </defs>
  <rect width="128" height="128" rx="30" fill="#020617"/>
  <rect x="10" y="10" width="108" height="108" rx="28" fill="url(#frame)" filter="url(#softShadow)"/>
  <rect x="18" y="18" width="92" height="92" rx="22" fill="#06111f"/>
  <path d="M39 42h50c3.3 0 6 2.7 6 6v29c0 3.3-2.7 6-6 6H39c-3.3 0-6-2.7-6-6V48c0-3.3 2.7-6 6-6Z" fill="#081827" opacity=".72"/>
  <text x="64" y="66" fill="#ffffff" font-family="Arial, Helvetica, sans-serif" font-size="31" font-weight="900" text-anchor="middle">DSA</text>
  <rect x="39" y="80" width="50" height="7" rx="3.5" fill="url(#bar)"/>
</svg>
